<svg width="190" height="48" viewBox="0 0 190 48" fill="none" xmlns="http://www.w3.org/2000/svg">
<path d="M51.4123 37.5195C55.5306 37.5195 58.8691 34.181 58.8691 30.0627C58.8691 25.9445 55.5306 22.606 51.4123 22.606C47.2941 22.606 43.9556 25.9445 43.9556 30.0627C43.9556 34.181 47.2941 37.5195 51.4123 37.5195Z" fill="#213A8F"/>
<path d="M17.0605 39.3597C21.1788 39.3597 24.5173 36.0212 24.5173 31.9029C24.5173 27.7847 21.1788 24.4462 17.0605 24.4462C12.9423 24.4462 9.60376 27.7847 9.60376 31.9029C9.60376 36.0212 12.9423 39.3597 17.0605 39.3597Z" fill="#DF3C38"/>
<path d="M15.8408 31.1522C17.346 31.1522 18.5661 29.932 18.5661 28.4268C18.5661 26.9217 17.346 25.7015 15.8408 25.7015C14.3357 25.7015 13.1155 26.9217 13.1155 28.4268C13.1155 29.932 14.3357 31.1522 15.8408 31.1522Z" fill="white"/>
<path d="M50.2162 29.3116C51.7213 29.3116 52.9415 28.0914 52.9415 26.5863C52.9415 25.0811 51.7213 23.861 50.2162 23.861C48.711 23.861 47.4908 25.0811 47.4908 26.5863C47.4908 28.0914 48.711 29.3116 50.2162 29.3116Z" fill="white"/>
<path d="M18.3864 47.0215C8.25162 47.0215 0 38.7699 0 28.6351C0 18.5004 8.25162 10.2488 18.3864 10.2488C28.5211 10.2488 36.7727 18.5004 36.7727 28.6351C36.7727 38.7699 28.5211 47.0215 18.3864 47.0215ZM18.3864 15.9833C11.4122 15.9833 5.7345 21.661 5.7345 28.6351C5.7345 35.6093 11.4122 41.287 18.3864 41.287C25.3605 41.287 31.0382 35.6093 31.0382 28.6351C31.0382 21.661 25.3605 15.9833 18.3864 15.9833Z" fill="#1F3C8C"/>
<path d="M36.5929 28.7111H31.218V45.0534H36.5929V28.7111Z" fill="#213A8F"/>
<path d="M70.8202 0H65.4453V27.4518H70.8202V0Z" fill="#DE3F39"/>
<path d="M52.6231 7.95874C45.2988 7.95874 38.9587 12.2643 36.0063 18.4815C36.0347 18.5193 41.3244 26.241 37.1986 36.3474C40.4822 41.3911 46.16 44.7315 52.6136 44.7315C62.7484 44.7315 71 36.4799 71 26.3451C71.0095 16.2104 62.7578 7.95874 52.6231 7.95874ZM52.6231 38.997C45.649 38.997 39.9712 33.3192 39.9712 26.3451C39.9712 19.371 45.649 13.6932 52.6231 13.6932C59.5972 13.6932 65.275 19.371 65.275 26.3451C65.2655 33.3192 59.5972 38.997 52.6231 38.997Z" fill="#DF3E39"/>
<path d="M88.2851 14.2978C88.6485 16.2659 89.3207 18.8094 89.9989 20.6746L90.986 23.3211C91.6885 25.1863 92.7725 27.5723 93.7596 29.3104L94.668 30.9152H87.407L87.1708 29.6737C87.0436 28.7411 86.7832 27.6268 86.4986 26.561H79.0801L79.0014 26.7427C78.5411 27.9599 78.5654 29.5708 79.0801 30.788L79.1346 30.9152H74.52L75.4042 30.1885C76.4155 29.3588 77.4026 28.0083 77.8932 26.7911L82.2231 15.5937C82.0657 15.2849 81.884 14.97 81.7326 14.7096L80.8 13.0745H88.061L88.2851 14.2978ZM79.4193 25.6829H86.2624C86.002 24.8532 85.7416 24.0235 85.4873 23.3211L84.5002 20.6746C84.0581 19.5058 83.4646 18.1069 82.8166 16.811L79.4193 25.6829Z" fill="#213A8F"/>
<path d="M103.867 13.0806H111.049L110.813 13.7285C110.474 14.6612 110.268 15.9329 110.268 16.9442V27.0576C110.268 28.0689 110.474 29.3407 110.813 30.2491L111.049 30.9213H104.751V29.8797C103.946 30.9152 102.601 31.6177 100.657 31.6177C97.1086 31.6177 94.0988 29.2317 94.0988 24.6171C94.0988 20.0025 97.1086 17.6164 100.554 17.6164C102.862 17.6164 104.03 18.7065 104.757 20.1599V16.7141C104.757 15.8602 104.551 14.7459 104.236 13.9647L103.867 13.0806ZM104.751 22.6489C104.751 21.5588 103.818 18.4764 102.026 18.4764C100.082 18.4764 99.1736 21.9525 99.1736 24.4899C99.1736 26.4338 99.7187 30.9213 101.717 30.8425C102.601 30.8425 104.751 29.9584 104.751 27.0818V22.6489Z" fill="#213A8F"/>
<path d="M119.098 24.2534H112.89C112.436 24.2534 112.061 23.884 112.061 23.4238C112.061 22.9696 112.43 22.5941 112.89 22.5941H119.098C119.552 22.5941 119.927 22.9635 119.927 23.4238C119.927 23.878 119.552 24.2534 119.098 24.2534Z" fill="#213A8F"/>
<path d="M123.391 31.3329C122.628 31.3329 122.12 30.8303 122.12 30.0612V14.5762C122.12 14.225 121.859 13.9646 121.508 13.9646H121.357V13.4619H128.097C133.916 13.4619 136.957 17.0288 136.957 22.4973C136.957 27.9901 133.892 31.3329 128.097 31.3329H123.391ZM126.213 26.2762C126.213 29.3587 126.038 30.3034 128.248 30.3034C131.706 30.3034 132.863 28.0082 132.863 22.4731C132.863 17.5497 131.924 14.4914 128.248 14.4914C126.347 14.4914 126.213 15.3211 126.213 18.3854V26.2762Z" fill="#DE3F39"/>
<path d="M142.183 26.3429C142.268 29.383 143.782 30.5639 145.314 30.5639C146.997 30.5639 148.663 29.0983 148.947 27.4996H149.977C149.214 30.1218 147.306 31.5873 144.484 31.5873C140.723 31.5873 138.095 29.0075 138.095 25.0045C138.095 21.044 140.633 18.3127 144.502 18.3127C147.24 18.3127 149.293 19.6693 149.293 21.7707C149.335 23.7389 147.542 25.7736 142.183 26.3429ZM144.345 19.3241C142.461 19.3241 142.268 23.3513 142.201 25.3376C144.957 24.3989 145.853 22.3399 145.835 21.159C145.835 20.3051 145.265 19.3241 144.345 19.3241Z" fill="#DE3F39"/>
<path d="M155.524 27.33V30.3034C155.524 30.6123 155.724 30.8303 156.027 30.8303H156.287V31.3329H152.702C151.939 31.3329 151.436 30.8303 151.436 30.0612V14.4854C151.436 14.1765 151.242 13.9585 150.934 13.9585H150.673V13.4619H154.24C155.003 13.4619 155.53 13.9646 155.53 14.7337V24.4897L160.254 19.3907C160.429 19.215 160.338 19.0818 160.102 19.0818H160.078V18.5549H162.397L162.373 18.5973V19.0757H162.331C162.089 19.0757 161.804 19.209 161.628 19.3846L157.934 23.3876L162.113 30.4548C162.246 30.697 162.531 30.8242 162.767 30.8242H162.985V31.3269H159.157C158.394 31.3269 157.625 30.8908 157.232 30.2307L155.524 27.33Z" fill="#DE3F39"/>
<path d="M171.56 22.7335C171.56 21.5526 170.967 20.6987 169.943 20.6987C168.98 20.6987 168.235 21.4436 168.235 23.0363V30.3034C168.235 30.6123 168.435 30.8303 168.738 30.8303H168.998V31.3329H165.413C164.65 31.3329 164.148 30.8303 164.148 30.0612V14.4854C164.148 14.1765 163.954 13.9585 163.645 13.9585H163.385V13.4619H166.951C167.714 13.4619 168.241 13.9646 168.241 14.7337V20.4868C169.053 19.1545 170.428 18.3006 172.069 18.3006C174.279 18.3248 175.636 19.9841 175.636 22.0189V30.3034C175.636 30.6123 175.854 30.8303 176.162 30.8303H176.405V31.3329H172.838C172.075 31.3329 171.572 30.8303 171.572 30.0612V22.7335H171.56Z" fill="#DE3F39"/>
<path d="M183.769 18.3127C187.772 18.3127 190 20.826 190 24.9379C190 29.0499 187.772 31.5873 183.769 31.5873C179.766 31.5873 177.537 29.0499 177.537 24.9379C177.531 20.832 179.766 18.3127 183.769 18.3127ZM183.769 30.5639C185.083 30.5639 185.913 28.2868 185.913 25.0106C185.913 21.5345 185.016 19.3241 183.745 19.3241C182.431 19.3241 181.625 21.5769 181.625 24.944C181.625 28.3353 182.455 30.5639 183.769 30.5639Z" fill="#DE3F39"/>
<path d="M120.508 44.0867C118.649 44.0867 114.646 42.5 119.679 39.1935C124.711 35.887 143.261 33.6766 154.918 33.4707C166.57 33.2648 185.398 33.4707 185.398 33.4707C185.398 33.4707 190.085 34.3003 186.706 35.0573C186.706 35.0573 161.537 33.5373 146.295 36.644C131.052 39.7506 122.374 44.0867 120.508 44.0867Z" fill="#DE3F39"/>
</svg>
